<?xml version="1.0" encoding="utf-8"?>
<!-- Uploaded to: SVG Repo, www.svgrepo.com, Generator: SVG Repo Mixer Tools -->
<svg width="800px" height="800px" viewBox="0 0 1024 1024" class="icon"  version="1.1" xmlns="http://www.w3.org/2000/svg"><path d="M897.28 597.76l-74.24-53.76c1.28-10.24 1.28-21.76 1.28-32 0-11.52 0-21.76-1.28-32l74.24-53.76c12.8-7.68 16.64-23.04 8.96-34.56l-90.88-154.88c-7.68-12.8-23.04-16.64-35.84-8.96l-84.48 37.12c-17.92-12.8-37.12-23.04-57.6-32l-7.68-92.16c0-14.08-11.52-25.6-25.6-25.6H422.4c-14.08 0-25.6 11.52-25.6 25.6l-8.96 90.88c-20.48 8.96-39.68 19.2-57.6 32l-84.48-37.12c-12.8-7.68-28.16-2.56-35.84 8.96l-89.6 156.16c-7.68 12.8-2.56 28.16 8.96 34.56l74.24 53.76c-1.28 10.24-1.28 21.76-1.28 32s0 21.76 1.28 32l-74.24 53.76c-12.8 7.68-16.64 23.04-8.96 34.56l90.88 154.88c7.68 12.8 23.04 16.64 35.84 8.96l84.48-37.12c17.92 12.8 37.12 23.04 57.6 32L396.8 883.2c0 14.08 11.52 25.6 25.6 25.6h181.76c14.08 0 25.6-11.52 25.6-25.6l8.96-90.88c20.48-8.96 39.68-19.2 57.6-32l84.48 37.12c12.8 7.68 28.16 2.56 35.84-8.96l90.88-154.88c6.4-12.8 1.28-28.16-10.24-35.84z m-384 65.28c-84.48 0-153.6-67.84-153.6-151.04s69.12-151.04 153.6-151.04 153.6 67.84 153.6 151.04-69.12 151.04-153.6 151.04z" fill="#FAC546" /><path d="M604.16 921.6H422.4c-20.48 0-38.4-16.64-38.4-37.12l-8.96-81.92c-16.64-7.68-32-16.64-46.08-26.88l-76.8 34.56c-17.92 10.24-42.24 3.84-52.48-14.08L108.8 638.72c-5.12-8.96-6.4-19.2-3.84-29.44 2.56-10.24 8.96-17.92 17.92-23.04l67.84-48.64c-1.28-8.96-1.28-17.92-1.28-26.88s0-17.92 1.28-26.88L122.88 435.2c-8.96-5.12-15.36-12.8-17.92-23.04-2.56-10.24-1.28-20.48 3.84-29.44l90.88-154.88c10.24-17.92 33.28-24.32 52.48-14.08l76.8 34.56c14.08-10.24 30.72-19.2 46.08-26.88l8.96-81.92C384 119.04 400.64 102.4 422.4 102.4h181.76c20.48 0 38.4 16.64 38.4 37.12l8.96 81.92c16.64 7.68 32 16.64 46.08 26.88l76.8-34.56c17.92-10.24 42.24-3.84 52.48 14.08l90.88 154.88c5.12 8.96 6.4 19.2 3.84 29.44-2.56 10.24-8.96 17.92-17.92 23.04l-67.84 48.64c1.28 8.96 1.28 17.92 1.28 26.88 0 8.96 0 17.92-1.28 26.88l67.84 48.64c8.96 5.12 15.36 12.8 17.92 23.04 2.56 10.24 1.28 20.48-3.84 29.44L826.88 793.6c-10.24 17.92-33.28 24.32-52.48 14.08l-76.8-34.56c-14.08 10.24-30.72 19.2-46.08 26.88l-8.96 81.92c0 23.04-17.92 39.68-38.4 39.68zM330.24 747.52c2.56 0 5.12 1.28 7.68 2.56 16.64 12.8 35.84 23.04 55.04 30.72 3.84 1.28 7.68 6.4 7.68 10.24l8.96 90.88v1.28c0 7.68 6.4 12.8 12.8 12.8h181.76c7.68 0 12.8-5.12 12.8-12.8v-1.28l8.96-90.88c0-5.12 3.84-8.96 7.68-10.24 19.2-8.96 37.12-19.2 55.04-30.72 3.84-2.56 8.96-2.56 12.8-1.28l84.48 37.12h1.28c6.4 3.84 14.08 1.28 17.92-5.12L896 625.92c1.28-2.56 2.56-6.4 1.28-8.96-1.28-3.84-2.56-6.4-6.4-7.68 0 0-1.28 0-1.28-1.28l-74.24-53.76c-3.84-2.56-6.4-7.68-5.12-11.52 1.28-10.24 1.28-20.48 1.28-30.72 0-10.24 0-20.48-1.28-30.72 0-5.12 1.28-8.96 5.12-11.52l74.24-53.76s1.28 0 1.28-1.28c2.56-1.28 5.12-5.12 6.4-7.68 1.28-3.84 0-6.4-1.28-8.96L805.12 243.2c-3.84-6.4-11.52-7.68-17.92-5.12h-1.28l-84.48 37.12c-3.84 1.28-8.96 1.28-12.8-1.28-16.64-12.8-35.84-23.04-55.04-30.72-3.84-1.28-7.68-6.4-7.68-10.24l-8.96-90.88V140.8c0-7.68-6.4-12.8-12.8-12.8H422.4c-7.68 0-12.8 5.12-12.8 12.8v1.28l-8.96 90.88c0 5.12-3.84 8.96-7.68 10.24-19.2 8.96-37.12 19.2-55.04 30.72-3.84 2.56-8.96 2.56-12.8 1.28l-84.48-37.12h-1.28c-6.4-3.84-14.08-1.28-17.92 5.12l-90.88 154.88c-1.28 2.56-2.56 6.4-1.28 8.96 1.28 3.84 2.56 6.4 6.4 7.68 0 0 1.28 0 1.28 1.28l74.24 53.76c3.84 2.56 6.4 7.68 5.12 11.52-1.28 10.24-1.28 20.48-1.28 30.72s0 20.48 1.28 30.72c0 5.12-1.28 8.96-5.12 11.52l-74.24 53.76s-1.28 0-1.28 1.28c-2.56 1.28-5.12 5.12-6.4 7.68-1.28 3.84 0 6.4 1.28 8.96L221.44 780.8c3.84 6.4 11.52 7.68 17.92 5.12h1.28l84.48-37.12c1.28-1.28 2.56-1.28 5.12-1.28z m183.04-71.68c-92.16 0-166.4-74.24-166.4-163.84s74.24-163.84 166.4-163.84 166.4 74.24 166.4 163.84-75.52 163.84-166.4 163.84z m0-302.08c-78.08 0-140.8 62.72-140.8 138.24 0 76.8 62.72 138.24 140.8 138.24s140.8-62.72 140.8-138.24c0-76.8-64-138.24-140.8-138.24z" fill="#231C1C" /><path d="M513.28 332.8C413.44 332.8 332.8 413.44 332.8 512s80.64 179.2 180.48 179.2 180.48-80.64 180.48-179.2-81.92-179.2-180.48-179.2z m0 281.6c-57.6 0-103.68-46.08-103.68-102.4s46.08-102.4 103.68-102.4 103.68 46.08 103.68 102.4-47.36 102.4-103.68 102.4z" fill="#E1E0A6" /><path d="M513.28 704C407.04 704 320 618.24 320 512s87.04-192 193.28-192 193.28 85.76 193.28 192c-1.28 106.24-87.04 192-193.28 192z m0-358.4C421.12 345.6 345.6 419.84 345.6 512s75.52 166.4 167.68 166.4c92.16 0 167.68-74.24 167.68-166.4-1.28-92.16-75.52-166.4-167.68-166.4z m0 281.6c-64 0-116.48-51.2-116.48-115.2s52.48-115.2 116.48-115.2 116.48 51.2 116.48 115.2-52.48 115.2-116.48 115.2z m0-204.8c-49.92 0-90.88 39.68-90.88 89.6s40.96 89.6 90.88 89.6c49.92 0 90.88-39.68 90.88-89.6s-40.96-89.6-90.88-89.6z" fill="#231C1C" /></svg>